solid Inlet
facet normal -1.000000 0.000000 0.000000
outer loop
vertex -0.050000 0.049951 0.051570
vertex -0.050000 0.050000 0.050000
vertex -0.050000 0.049951 0.048430
endloop
endfacet
facet normal -1.000000 0.000094 0.000000
outer loop
vertex -0.050000 0.049951 0.048430
vertex -0.050000 0.049901 0.046860
vertex -0.050000 0.049754 0.045297
endloop
endfacet
facet normal -1.000000 0.000000 0.000000
outer loop
vertex -0.050000 0.049754 0.045297
vertex -0.050000 0.049606 0.043733
vertex -0.050000 0.049360 0.042182
endloop
endfacet
facet normal -1.000000 0.000000 0.000000
outer loop
vertex -0.050000 0.049360 0.042182
vertex -0.050000 0.049114 0.040631
vertex -0.050000 0.048772 0.039098
endloop
endfacet
facet normal -1.000000 -0.000094 0.000000
outer loop
vertex -0.050000 0.048772 0.039098
vertex -0.050000 0.048429 0.037566
vertex -0.050000 0.047991 0.036057
endloop
endfacet
facet normal -1.000000 0.000000 0.000000
outer loop
vertex -0.050000 0.047991 0.036057
vertex -0.050000 0.047553 0.034549
vertex -0.050000 0.047021 0.033071
endloop
endfacet
facet normal -1.000000 0.000000 0.000000
outer loop
vertex -0.050000 0.047021 0.033071
vertex -0.050000 0.046489 0.031594
vertex -0.050000 0.045865 0.030152
endloop
endfacet
facet normal -1.000000 0.000000 0.000000
outer loop
vertex -0.050000 0.045865 0.030152
vertex -0.050000 0.045241 0.028711
vertex -0.050000 0.044528 0.027312
endloop
endfacet
facet normal -1.000000 0.000000 0.000000
outer loop
vertex -0.050000 0.044528 0.027312
vertex -0.050000 0.043815 0.025912
vertex -0.050000 0.043016 0.024560
endloop
endfacet
facet normal -1.000000 0.000000 0.000000
outer loop
vertex -0.050000 0.043016 0.024560
vertex -0.050000 0.042216 0.023209
vertex -0.050000 0.041334 0.021910
endloop
endfacet
facet normal -1.000000 0.000094 0.000000
outer loop
vertex -0.050000 0.041334 0.021910
vertex -0.050000 0.040451 0.020611
vertex -0.050000 0.039488 0.019370
endloop
endfacet
facet normal -1.000000 0.000000 0.000000
outer loop
vertex -0.050000 0.039488 0.019370
vertex -0.050000 0.038526 0.018129
vertex -0.050000 0.037487 0.016951
endloop
endfacet
facet normal -1.000000 0.000000 0.000000
outer loop
vertex -0.050000 0.037487 0.016951
vertex -0.050000 0.036448 0.015773
vertex -0.050000 0.035338 0.014662
endloop
endfacet
facet normal -1.000000 0.000047 0.000000
outer loop
vertex -0.050000 0.035338 0.014662
vertex -0.050000 0.034227 0.013552
vertex -0.050000 0.033049 0.012513
endloop
endfacet
facet normal -1.000000 0.000047 0.000000
outer loop
vertex -0.050000 0.033049 0.012513
vertex -0.050000 0.031871 0.011474
vertex -0.050000 0.030630 0.010512
endloop
endfacet
facet normal -1.000000 -0.000047 0.000000
outer loop
vertex -0.050000 0.030630 0.010512
vertex -0.050000 0.029389 0.009549
vertex -0.050000 0.028090 0.008666
endloop
endfacet
facet normal -1.000000 0.000000 0.000000
outer loop
vertex -0.050000 0.028090 0.008666
vertex -0.050000 0.026791 0.007784
vertex -0.050000 0.025440 0.006984
endloop
endfacet
facet normal -1.000000 0.000000 0.000000
outer loop
vertex -0.050000 0.025440 0.006984
vertex -0.050000 0.024088 0.006185
vertex -0.050000 0.022688 0.005472
endloop
endfacet
facet normal -1.000000 0.000047 0.000000
outer loop
vertex -0.050000 0.022688 0.005472
vertex -0.050000 0.021289 0.004759
vertex -0.050000 0.019848 0.004135
endloop
endfacet
facet normal -1.000000 -0.000023 0.000000
outer loop
vertex -0.050000 0.019848 0.004135
vertex -0.050000 0.018406 0.003511
vertex -0.050000 0.016929 0.002979
endloop
endfacet
facet normal -1.000000 0.000023 0.000000
outer loop
vertex -0.050000 0.016929 0.002979
vertex -0.050000 0.015451 0.002447
vertex -0.050000 0.013943 0.002009
endloop
endfacet
facet normal -1.000000 -0.000023 0.000000
outer loop
vertex -0.050000 0.013943 0.002009
vertex -0.050000 0.012434 0.001571
vertex -0.050000 0.010902 0.001228
endloop
endfacet
facet normal -1.000000 -0.000012 0.000000
outer loop
vertex -0.050000 0.010902 0.001228
vertex -0.050000 0.009369 0.000886
vertex -0.050000 0.007818 0.000640
endloop
endfacet
facet normal -1.000000 0.000012 0.000000
outer loop
vertex -0.050000 0.007818 0.000640
vertex -0.050000 0.006267 0.000394
vertex -0.050000 0.004703 0.000246
endloop
endfacet
facet normal -1.000000 -0.000003 0.000000
outer loop
vertex -0.050000 0.004703 0.000246
vertex -0.050000 0.003140 0.000099
vertex -0.050000 0.001570 0.000049
endloop
endfacet
facet normal -1.000000 0.000000 0.000000
outer loop
vertex -0.050000 0.001570 0.000049
vertex -0.050000 -0.000000 0.000000
vertex -0.050000 -0.001570 0.000049
endloop
endfacet
facet normal -1.000000 0.000000 0.000000
outer loop
vertex -0.050000 -0.001570 0.000049
vertex -0.050000 -0.003140 0.000099
vertex -0.050000 -0.004703 0.000246
endloop
endfacet
facet normal -1.000000 0.000000 0.000000
outer loop
vertex -0.050000 -0.004703 0.000246
vertex -0.050000 -0.006267 0.000394
vertex -0.050000 -0.007818 0.000640
endloop
endfacet
facet normal -1.000000 0.000023 0.000000
outer loop
vertex -0.050000 -0.007818 0.000640
vertex -0.050000 -0.009369 0.000886
vertex -0.050000 -0.010902 0.001228
endloop
endfacet
facet normal -1.000000 0.000023 0.000000
outer loop
vertex -0.050000 -0.010902 0.001228
vertex -0.050000 -0.012435 0.001571
vertex -0.050000 -0.013943 0.002009
endloop
endfacet
facet normal -1.000000 -0.000023 0.000000
outer loop
vertex -0.050000 -0.013943 0.002009
vertex -0.050000 -0.015451 0.002447
vertex -0.050000 -0.016929 0.002979
endloop
endfacet
facet normal -1.000000 0.000000 0.000000
outer loop
vertex -0.050000 -0.016929 0.002979
vertex -0.050000 -0.018406 0.003511
vertex -0.050000 -0.019848 0.004135
endloop
endfacet
facet normal -1.000000 0.000000 0.000000
outer loop
vertex -0.050000 -0.019848 0.004135
vertex -0.050000 -0.021289 0.004759
vertex -0.050000 -0.022688 0.005472
endloop
endfacet
facet normal -1.000000 0.000000 0.000000
outer loop
vertex -0.050000 -0.022688 0.005472
vertex -0.050000 -0.024088 0.006185
vertex -0.050000 -0.025440 0.006984
endloop
endfacet
facet normal -1.000000 0.000047 0.000000
outer loop
vertex -0.050000 -0.025440 0.006984
vertex -0.050000 -0.026791 0.007784
vertex -0.050000 -0.028090 0.008666
endloop
endfacet
facet normal -1.000000 0.000000 0.000000
outer loop
vertex -0.050000 -0.028090 0.008666
vertex -0.050000 -0.029389 0.009549
vertex -0.050000 -0.030630 0.010512
endloop
endfacet
facet normal -1.000000 0.000000 0.000000
outer loop
vertex -0.050000 -0.030630 0.010512
vertex -0.050000 -0.031871 0.011474
vertex -0.050000 -0.033049 0.012513
endloop
endfacet
facet normal -1.000000 -0.000047 0.000000
outer loop
vertex -0.050000 -0.033049 0.012513
vertex -0.050000 -0.034227 0.013552
vertex -0.050000 -0.035338 0.014662
endloop
endfacet
facet normal -1.000000 0.000047 0.000000
outer loop
vertex -0.050000 -0.035338 0.014662
vertex -0.050000 -0.036448 0.015773
vertex -0.050000 -0.037487 0.016951
endloop
endfacet
facet normal -1.000000 0.000000 0.000000
outer loop
vertex -0.050000 -0.037487 0.016951
vertex -0.050000 -0.038526 0.018129
vertex -0.050000 -0.039488 0.019370
endloop
endfacet
facet normal -1.000000 -0.000094 0.000000
outer loop
vertex -0.050000 -0.039488 0.019370
vertex -0.050000 -0.040451 0.020611
vertex -0.050000 -0.041334 0.021910
endloop
endfacet
facet normal -1.000000 0.000000 0.000000
outer loop
vertex -0.050000 -0.041334 0.021910
vertex -0.050000 -0.042216 0.023209
vertex -0.050000 -0.043016 0.024561
endloop
endfacet
facet normal -1.000000 0.000094 0.000000
outer loop
vertex -0.050000 -0.043016 0.024561
vertex -0.050000 -0.043815 0.025912
vertex -0.050000 -0.044528 0.027312
endloop
endfacet
facet normal -1.000000 0.000000 0.000000
outer loop
vertex -0.050000 -0.044528 0.027312
vertex -0.050000 -0.045241 0.028711
vertex -0.050000 -0.045865 0.030152
endloop
endfacet
facet normal -1.000000 0.000094 0.000000
outer loop
vertex -0.050000 -0.045865 0.030152
vertex -0.050000 -0.046489 0.031594
vertex -0.050000 -0.047021 0.033072
endloop
endfacet
facet normal -1.000000 -0.000094 0.000000
outer loop
vertex -0.050000 -0.047021 0.033072
vertex -0.050000 -0.047553 0.034549
vertex -0.050000 -0.047991 0.036057
endloop
endfacet
facet normal -1.000000 0.000094 0.000000
outer loop
vertex -0.050000 -0.047991 0.036057
vertex -0.050000 -0.048429 0.037566
vertex -0.050000 -0.048772 0.039098
endloop
endfacet
facet normal -1.000000 -0.000094 0.000000
outer loop
vertex -0.050000 -0.048772 0.039098
vertex -0.050000 -0.049114 0.040631
vertex -0.050000 -0.049360 0.042182
endloop
endfacet
facet normal -1.000000 0.000000 0.000000
outer loop
vertex -0.050000 -0.049360 0.042182
vertex -0.050000 -0.049606 0.043733
vertex -0.050000 -0.049754 0.045297
endloop
endfacet
facet normal -1.000000 -0.000094 0.000000
outer loop
vertex -0.050000 -0.049754 0.045297
vertex -0.050000 -0.049901 0.046861
vertex -0.050000 -0.049951 0.048430
endloop
endfacet
facet normal -1.000000 0.000000 0.000000
outer loop
vertex -0.050000 -0.049951 0.048430
vertex -0.050000 -0.050000 0.050000
vertex -0.050000 -0.049951 0.051570
endloop
endfacet
facet normal -1.000000 -0.000094 0.000000
outer loop
vertex -0.050000 -0.049951 0.051570
vertex -0.050000 -0.049901 0.053140
vertex -0.050000 -0.049754 0.054703
endloop
endfacet
facet normal -1.000000 0.000000 0.000000
outer loop
vertex -0.050000 -0.049754 0.054703
vertex -0.050000 -0.049606 0.056267
vertex -0.050000 -0.049360 0.057818
endloop
endfacet
facet normal -1.000000 -0.000094 0.000000
outer loop
vertex -0.050000 -0.049360 0.057818
vertex -0.050000 -0.049114 0.059369
vertex -0.050000 -0.048772 0.060902
endloop
endfacet
facet normal -1.000000 -0.000094 0.000000
outer loop
vertex -0.050000 -0.048772 0.060902
vertex -0.050000 -0.048429 0.062435
vertex -0.050000 -0.047991 0.063943
endloop
endfacet
facet normal -1.000000 0.000000 0.000000
outer loop
vertex -0.050000 -0.047991 0.063943
vertex -0.050000 -0.047553 0.065451
vertex -0.050000 -0.047021 0.066929
endloop
endfacet
facet normal -1.000000 0.000094 0.000000
outer loop
vertex -0.050000 -0.047021 0.066929
vertex -0.050000 -0.046489 0.068406
vertex -0.050000 -0.045865 0.069848
endloop
endfacet
facet normal -1.000000 0.000000 0.000000
outer loop
vertex -0.050000 -0.045865 0.069848
vertex -0.050000 -0.045241 0.071289
vertex -0.050000 -0.044528 0.072688
endloop
endfacet
facet normal -1.000000 0.000000 0.000000
outer loop
vertex -0.050000 -0.044528 0.072688
vertex -0.050000 -0.043815 0.074088
vertex -0.050000 -0.043016 0.075440
endloop
endfacet
facet normal -1.000000 0.000094 0.000000
outer loop
vertex -0.050000 -0.043016 0.075440
vertex -0.050000 -0.042216 0.076791
vertex -0.050000 -0.041334 0.078090
endloop
endfacet
facet normal -1.000000 -0.000094 0.000000
outer loop
vertex -0.050000 -0.041334 0.078090
vertex -0.050000 -0.040451 0.079389
vertex -0.050000 -0.039488 0.080630
endloop
endfacet
facet normal -1.000000 0.000000 0.000000
outer loop
vertex -0.050000 -0.039488 0.080630
vertex -0.050000 -0.038526 0.081871
vertex -0.050000 -0.037487 0.083049
endloop
endfacet
facet normal -1.000000 -0.000047 0.000000
outer loop
vertex -0.050000 -0.037487 0.083049
vertex -0.050000 -0.036448 0.084227
vertex -0.050000 -0.035338 0.085338
endloop
endfacet
facet normal -1.000000 0.000000 0.000000
outer loop
vertex -0.050000 -0.035338 0.085338
vertex -0.050000 -0.034227 0.086448
vertex -0.050000 -0.033049 0.087487
endloop
endfacet
facet normal -1.000000 -0.000047 0.000000
outer loop
vertex -0.050000 -0.033049 0.087487
vertex -0.050000 -0.031871 0.088526
vertex -0.050000 -0.030630 0.089488
endloop
endfacet
facet normal -1.000000 0.000047 0.000000
outer loop
vertex -0.050000 -0.030630 0.089488
vertex -0.050000 -0.029389 0.090451
vertex -0.050000 -0.028090 0.091334
endloop
endfacet
facet normal -1.000000 0.000000 0.000000
outer loop
vertex -0.050000 -0.028090 0.091334
vertex -0.050000 -0.026791 0.092216
vertex -0.050000 -0.025439 0.093016
endloop
endfacet
facet normal -1.000000 0.000000 0.000000
outer loop
vertex -0.050000 -0.025439 0.093016
vertex -0.050000 -0.024088 0.093815
vertex -0.050000 -0.022688 0.094528
endloop
endfacet
facet normal -1.000000 0.000000 0.000000
outer loop
vertex -0.050000 -0.022688 0.094528
vertex -0.050000 -0.021289 0.095241
vertex -0.050000 -0.019848 0.095865
endloop
endfacet
facet normal -1.000000 0.000023 0.000000
outer loop
vertex -0.050000 -0.019848 0.095865
vertex -0.050000 -0.018406 0.096489
vertex -0.050000 -0.016928 0.097021
endloop
endfacet
facet normal -1.000000 0.000000 0.000000
outer loop
vertex -0.050000 -0.016928 0.097021
vertex -0.050000 -0.015451 0.097553
vertex -0.050000 -0.013943 0.097991
endloop
endfacet
facet normal -1.000000 0.000000 0.000000
outer loop
vertex -0.050000 -0.013943 0.097991
vertex -0.050000 -0.012434 0.098429
vertex -0.050000 -0.010902 0.098772
endloop
endfacet
facet normal -1.000000 0.000000 0.000000
outer loop
vertex -0.050000 -0.010902 0.098772
vertex -0.050000 -0.009369 0.099114
vertex -0.050000 -0.007818 0.099360
endloop
endfacet
facet normal -1.000000 -0.000006 0.000000
outer loop
vertex -0.050000 -0.007818 0.099360
vertex -0.050000 -0.006267 0.099606
vertex -0.050000 -0.004703 0.099754
endloop
endfacet
facet normal -1.000000 0.000000 0.000000
outer loop
vertex -0.050000 -0.004703 0.099754
vertex -0.050000 -0.003139 0.099901
vertex -0.050000 -0.001570 0.099951
endloop
endfacet
facet normal -1.000000 0.000000 0.000000
outer loop
vertex -0.050000 -0.001570 0.099951
vertex -0.050000 0.000000 0.100000
vertex -0.050000 0.001570 0.099951
endloop
endfacet
facet normal -1.000000 0.000006 0.000000
outer loop
vertex -0.050000 0.001570 0.099951
vertex -0.050000 0.003140 0.099901
vertex -0.050000 0.004703 0.099754
endloop
endfacet
facet normal -1.000000 -0.000012 0.000000
outer loop
vertex -0.050000 0.004703 0.099754
vertex -0.050000 0.006267 0.099606
vertex -0.050000 0.007818 0.099360
endloop
endfacet
facet normal -1.000000 0.000000 0.000000
outer loop
vertex -0.050000 0.007818 0.099360
vertex -0.050000 0.009369 0.099114
vertex -0.050000 0.010902 0.098772
endloop
endfacet
facet normal -1.000000 0.000023 0.000000
outer loop
vertex -0.050000 0.010902 0.098772
vertex -0.050000 0.012435 0.098429
vertex -0.050000 0.013943 0.097991
endloop
endfacet
facet normal -1.000000 0.000023 0.000000
outer loop
vertex -0.050000 0.013943 0.097991
vertex -0.050000 0.015451 0.097553
vertex -0.050000 0.016929 0.097021
endloop
endfacet
facet normal -1.000000 0.000047 0.000000
outer loop
vertex -0.050000 0.016929 0.097021
vertex -0.050000 0.018406 0.096489
vertex -0.050000 0.019848 0.095865
endloop
endfacet
facet normal -1.000000 -0.000047 0.000000
outer loop
vertex -0.050000 0.019848 0.095865
vertex -0.050000 0.021289 0.095241
vertex -0.050000 0.022688 0.094528
endloop
endfacet
facet normal -1.000000 0.000047 0.000000
outer loop
vertex -0.050000 0.022688 0.094528
vertex -0.050000 0.024088 0.093815
vertex -0.050000 0.025440 0.093016
endloop
endfacet
facet normal -1.000000 0.000047 0.000000
outer loop
vertex -0.050000 0.025440 0.093016
vertex -0.050000 0.026791 0.092216
vertex -0.050000 0.028090 0.091334
endloop
endfacet
facet normal -1.000000 0.000047 0.000000
outer loop
vertex -0.050000 0.028090 0.091334
vertex -0.050000 0.029389 0.090451
vertex -0.050000 0.030630 0.089488
endloop
endfacet
facet normal -1.000000 0.000047 0.000000
outer loop
vertex -0.050000 0.030630 0.089488
vertex -0.050000 0.031871 0.088526
vertex -0.050000 0.033049 0.087487
endloop
endfacet
facet normal -1.000000 -0.000047 0.000000
outer loop
vertex -0.050000 0.033049 0.087487
vertex -0.050000 0.034227 0.086448
vertex -0.050000 0.035338 0.085338
endloop
endfacet
facet normal -1.000000 0.000000 0.000000
outer loop
vertex -0.050000 0.035338 0.085338
vertex -0.050000 0.036448 0.084227
vertex -0.050000 0.037487 0.083049
endloop
endfacet
facet normal -1.000000 0.000000 0.000000
outer loop
vertex -0.050000 0.037487 0.083049
vertex -0.050000 0.038526 0.081871
vertex -0.050000 0.039488 0.080630
endloop
endfacet
facet normal -1.000000 0.000000 0.000000
outer loop
vertex -0.050000 0.039488 0.080630
vertex -0.050000 0.040451 0.079389
vertex -0.050000 0.041334 0.078090
endloop
endfacet
facet normal -1.000000 0.000000 0.000000
outer loop
vertex -0.050000 0.041334 0.078090
vertex -0.050000 0.042216 0.076791
vertex -0.050000 0.043016 0.075439
endloop
endfacet
facet normal -1.000000 0.000094 0.000000
outer loop
vertex -0.050000 0.043016 0.075439
vertex -0.050000 0.043815 0.074088
vertex -0.050000 0.044528 0.072688
endloop
endfacet
facet normal -1.000000 -0.000094 0.000000
outer loop
vertex -0.050000 0.044528 0.072688
vertex -0.050000 0.045241 0.071289
vertex -0.050000 0.045865 0.069848
endloop
endfacet
facet normal -1.000000 0.000000 0.000000
outer loop
vertex -0.050000 0.045865 0.069848
vertex -0.050000 0.046489 0.068406
vertex -0.050000 0.047021 0.066928
endloop
endfacet
facet normal -1.000000 -0.000094 0.000000
outer loop
vertex -0.050000 0.047021 0.066928
vertex -0.050000 0.047553 0.065451
vertex -0.050000 0.047991 0.063943
endloop
endfacet
facet normal -1.000000 -0.000094 0.000000
outer loop
vertex -0.050000 0.047991 0.063943
vertex -0.050000 0.048429 0.062434
vertex -0.050000 0.048772 0.060902
endloop
endfacet
facet normal -1.000000 0.000094 0.000000
outer loop
vertex -0.050000 0.048772 0.060902
vertex -0.050000 0.049114 0.059369
vertex -0.050000 0.049360 0.057818
endloop
endfacet
facet normal -1.000000 0.000000 0.000000
outer loop
vertex -0.050000 0.049360 0.057818
vertex -0.050000 0.049606 0.056267
vertex -0.050000 0.049754 0.054703
endloop
endfacet
facet normal -1.000000 0.000000 0.000000
outer loop
vertex -0.050000 0.049754 0.054703
vertex -0.050000 0.049901 0.053139
vertex -0.050000 0.049951 0.051570
endloop
endfacet
facet normal -1.000000 -0.000047 0.000000
outer loop
vertex -0.050000 0.049951 0.051570
vertex -0.050000 0.049951 0.048430
vertex -0.050000 0.049754 0.045297
endloop
endfacet
facet normal -1.000000 0.000000 0.000000
outer loop
vertex -0.050000 0.049754 0.045297
vertex -0.050000 0.049360 0.042182
vertex -0.050000 0.048772 0.039098
endloop
endfacet
facet normal -1.000000 0.000047 0.000000
outer loop
vertex -0.050000 0.048772 0.039098
vertex -0.050000 0.047991 0.036057
vertex -0.050000 0.047021 0.033071
endloop
endfacet
facet normal -1.000000 0.000047 0.000000
outer loop
vertex -0.050000 0.047021 0.033071
vertex -0.050000 0.045865 0.030152
vertex -0.050000 0.044528 0.027312
endloop
endfacet
facet normal -1.000000 -0.000047 0.000000
outer loop
vertex -0.050000 0.044528 0.027312
vertex -0.050000 0.043016 0.024560
vertex -0.050000 0.041334 0.021910
endloop
endfacet
facet normal -1.000000 -0.000024 0.000000
outer loop
vertex -0.050000 0.041334 0.021910
vertex -0.050000 0.039488 0.019370
vertex -0.050000 0.037487 0.016951
endloop
endfacet
facet normal -1.000000 -0.000024 0.000000
outer loop
vertex -0.050000 0.037487 0.016951
vertex -0.050000 0.035338 0.014662
vertex -0.050000 0.033049 0.012513
endloop
endfacet
facet normal -1.000000 0.000024 0.000000
outer loop
vertex -0.050000 0.033049 0.012513
vertex -0.050000 0.030630 0.010512
vertex -0.050000 0.028090 0.008666
endloop
endfacet
facet normal -1.000000 0.000000 0.000000
outer loop
vertex -0.050000 0.028090 0.008666
vertex -0.050000 0.025440 0.006984
vertex -0.050000 0.022688 0.005472
endloop
endfacet
facet normal -1.000000 -0.000012 0.000000
outer loop
vertex -0.050000 0.022688 0.005472
vertex -0.050000 0.019848 0.004135
vertex -0.050000 0.016929 0.002979
endloop
endfacet
facet normal -1.000000 -0.000012 0.000000
outer loop
vertex -0.050000 0.016929 0.002979
vertex -0.050000 0.013943 0.002009
vertex -0.050000 0.010902 0.001228
endloop
endfacet
facet normal -1.000000 0.000000 0.000000
outer loop
vertex -0.050000 0.010902 0.001228
vertex -0.050000 0.007818 0.000640
vertex -0.050000 0.004703 0.000246
endloop
endfacet
facet normal -1.000000 0.000000 0.000000
outer loop
vertex -0.050000 0.004703 0.000246
vertex -0.050000 0.001570 0.000049
vertex -0.050000 -0.001570 0.000049
endloop
endfacet
facet normal -1.000000 0.000000 0.000000
outer loop
vertex -0.050000 -0.001570 0.000049
vertex -0.050000 -0.004703 0.000246
vertex -0.050000 -0.007818 0.000640
endloop
endfacet
facet normal -1.000000 -0.000012 0.000000
outer loop
vertex -0.050000 -0.007818 0.000640
vertex -0.050000 -0.010902 0.001228
vertex -0.050000 -0.013943 0.002009
endloop
endfacet
facet normal -1.000000 0.000000 0.000000
outer loop
vertex -0.050000 -0.013943 0.002009
vertex -0.050000 -0.016929 0.002979
vertex -0.050000 -0.019848 0.004135
endloop
endfacet
facet normal -1.000000 0.000024 0.000000
outer loop
vertex -0.050000 -0.019848 0.004135
vertex -0.050000 -0.022688 0.005472
vertex -0.050000 -0.025440 0.006984
endloop
endfacet
facet normal -1.000000 -0.000024 0.000000
outer loop
vertex -0.050000 -0.025440 0.006984
vertex -0.050000 -0.028090 0.008666
vertex -0.050000 -0.030630 0.010512
endloop
endfacet
facet normal -1.000000 0.000024 0.000000
outer loop
vertex -0.050000 -0.030630 0.010512
vertex -0.050000 -0.033049 0.012513
vertex -0.050000 -0.035338 0.014662
endloop
endfacet
facet normal -1.000000 0.000000 0.000000
outer loop
vertex -0.050000 -0.035338 0.014662
vertex -0.050000 -0.037487 0.016951
vertex -0.050000 -0.039488 0.019370
endloop
endfacet
facet normal -1.000000 0.000047 0.000000
outer loop
vertex -0.050000 -0.039488 0.019370
vertex -0.050000 -0.041334 0.021910
vertex -0.050000 -0.043016 0.024561
endloop
endfacet
facet normal -1.000000 -0.000047 0.000000
outer loop
vertex -0.050000 -0.043016 0.024561
vertex -0.050000 -0.044528 0.027312
vertex -0.050000 -0.045865 0.030152
endloop
endfacet
facet normal -1.000000 0.000000 0.000000
outer loop
vertex -0.050000 -0.045865 0.030152
vertex -0.050000 -0.047021 0.033072
vertex -0.050000 -0.047991 0.036057
endloop
endfacet
facet normal -1.000000 0.000000 0.000000
outer loop
vertex -0.050000 -0.047991 0.036057
vertex -0.050000 -0.048772 0.039098
vertex -0.050000 -0.049360 0.042182
endloop
endfacet
facet normal -1.000000 0.000047 0.000000
outer loop
vertex -0.050000 -0.049360 0.042182
vertex -0.050000 -0.049754 0.045297
vertex -0.050000 -0.049951 0.048430
endloop
endfacet
facet normal -1.000000 0.000047 0.000000
outer loop
vertex -0.050000 -0.049951 0.048430
vertex -0.050000 -0.049951 0.051570
vertex -0.050000 -0.049754 0.054703
endloop
endfacet
facet normal -1.000000 0.000000 0.000000
outer loop
vertex -0.050000 -0.049754 0.054703
vertex -0.050000 -0.049360 0.057818
vertex -0.050000 -0.048772 0.060902
endloop
endfacet
facet normal -1.000000 0.000047 0.000000
outer loop
vertex -0.050000 -0.048772 0.060902
vertex -0.050000 -0.047991 0.063943
vertex -0.050000 -0.047021 0.066929
endloop
endfacet
facet normal -1.000000 0.000000 0.000000
outer loop
vertex -0.050000 -0.047021 0.066929
vertex -0.050000 -0.045865 0.069848
vertex -0.050000 -0.044528 0.072688
endloop
endfacet
facet normal -1.000000 0.000000 0.000000
outer loop
vertex -0.050000 -0.044528 0.072688
vertex -0.050000 -0.043016 0.075440
vertex -0.050000 -0.041334 0.078090
endloop
endfacet
facet normal -1.000000 -0.000024 0.000000
outer loop
vertex -0.050000 -0.041334 0.078090
vertex -0.050000 -0.039488 0.080630
vertex -0.050000 -0.037487 0.083049
endloop
endfacet
facet normal -1.000000 0.000000 0.000000
outer loop
vertex -0.050000 -0.037487 0.083049
vertex -0.050000 -0.035338 0.085338
vertex -0.050000 -0.033049 0.087487
endloop
endfacet
facet normal -1.000000 0.000000 0.000000
outer loop
vertex -0.050000 -0.033049 0.087487
vertex -0.050000 -0.030630 0.089488
vertex -0.050000 -0.028090 0.091334
endloop
endfacet
facet normal -1.000000 0.000000 0.000000
outer loop
vertex -0.050000 -0.028090 0.091334
vertex -0.050000 -0.025439 0.093016
vertex -0.050000 -0.022688 0.094528
endloop
endfacet
facet normal -1.000000 -0.000024 0.000000
outer loop
vertex -0.050000 -0.022688 0.094528
vertex -0.050000 -0.019848 0.095865
vertex -0.050000 -0.016928 0.097021
endloop
endfacet
facet normal -1.000000 0.000000 0.000000
outer loop
vertex -0.050000 -0.016928 0.097021
vertex -0.050000 -0.013943 0.097991
vertex -0.050000 -0.010902 0.098772
endloop
endfacet
facet normal -1.000000 0.000006 0.000000
outer loop
vertex -0.050000 -0.010902 0.098772
vertex -0.050000 -0.007818 0.099360
vertex -0.050000 -0.004703 0.099754
endloop
endfacet
facet normal -1.000000 0.000000 0.000000
outer loop
vertex -0.050000 -0.004703 0.099754
vertex -0.050000 -0.001570 0.099951
vertex -0.050000 0.001570 0.099951
endloop
endfacet
facet normal -1.000000 0.000006 0.000000
outer loop
vertex -0.050000 0.001570 0.099951
vertex -0.050000 0.004703 0.099754
vertex -0.050000 0.007818 0.099360
endloop
endfacet
facet normal -1.000000 0.000000 0.000000
outer loop
vertex -0.050000 0.007818 0.099360
vertex -0.050000 0.010902 0.098772
vertex -0.050000 0.013943 0.097991
endloop
endfacet
facet normal -1.000000 -0.000012 0.000000
outer loop
vertex -0.050000 0.013943 0.097991
vertex -0.050000 0.016929 0.097021
vertex -0.050000 0.019848 0.095865
endloop
endfacet
facet normal -1.000000 0.000000 0.000000
outer loop
vertex -0.050000 0.019848 0.095865
vertex -0.050000 0.022688 0.094528
vertex -0.050000 0.025440 0.093016
endloop
endfacet
facet normal -1.000000 0.000000 0.000000
outer loop
vertex -0.050000 0.025440 0.093016
vertex -0.050000 0.028090 0.091334
vertex -0.050000 0.030630 0.089488
endloop
endfacet
facet normal -1.000000 0.000024 0.000000
outer loop
vertex -0.050000 0.030630 0.089488
vertex -0.050000 0.033049 0.087487
vertex -0.050000 0.035338 0.085338
endloop
endfacet
facet normal -1.000000 -0.000024 0.000000
outer loop
vertex -0.050000 0.035338 0.085338
vertex -0.050000 0.037487 0.083049
vertex -0.050000 0.039488 0.080630
endloop
endfacet
facet normal -1.000000 0.000047 0.000000
outer loop
vertex -0.050000 0.039488 0.080630
vertex -0.050000 0.041334 0.078090
vertex -0.050000 0.043016 0.075439
endloop
endfacet
facet normal -1.000000 0.000000 0.000000
outer loop
vertex -0.050000 0.043016 0.075439
vertex -0.050000 0.044528 0.072688
vertex -0.050000 0.045865 0.069848
endloop
endfacet
facet normal -1.000000 0.000000 0.000000
outer loop
vertex -0.050000 0.045865 0.069848
vertex -0.050000 0.047021 0.066928
vertex -0.050000 0.047991 0.063943
endloop
endfacet
facet normal -1.000000 0.000000 0.000000
outer loop
vertex -0.050000 0.047991 0.063943
vertex -0.050000 0.048772 0.060902
vertex -0.050000 0.049360 0.057818
endloop
endfacet
facet normal -1.000000 0.000047 0.000000
outer loop
vertex -0.050000 0.049360 0.057818
vertex -0.050000 0.049754 0.054703
vertex -0.050000 0.049951 0.051570
endloop
endfacet
facet normal -1.000000 0.000000 0.000000
outer loop
vertex -0.050000 0.049951 0.051570
vertex -0.050000 0.049754 0.045297
vertex -0.050000 0.048772 0.039098
endloop
endfacet
facet normal -1.000000 0.000000 0.000000
outer loop
vertex -0.050000 0.048772 0.039098
vertex -0.050000 0.047021 0.033071
vertex -0.050000 0.044528 0.027312
endloop
endfacet
facet normal -1.000000 0.000012 0.000000
outer loop
vertex -0.050000 0.044528 0.027312
vertex -0.050000 0.041334 0.021910
vertex -0.050000 0.037487 0.016951
endloop
endfacet
facet normal -1.000000 -0.000006 0.000000
outer loop
vertex -0.050000 0.037487 0.016951
vertex -0.050000 0.033049 0.012513
vertex -0.050000 0.028090 0.008666
endloop
endfacet
facet normal -1.000000 0.000006 0.000000
outer loop
vertex -0.050000 0.028090 0.008666
vertex -0.050000 0.022688 0.005472
vertex -0.050000 0.016929 0.002979
endloop
endfacet
facet normal -1.000000 0.000001 0.000000
outer loop
vertex -0.050000 0.016929 0.002979
vertex -0.050000 0.010902 0.001228
vertex -0.050000 0.004703 0.000246
endloop
endfacet
facet normal -1.000000 0.000000 0.000000
outer loop
vertex -0.050000 0.004703 0.000246
vertex -0.050000 -0.001570 0.000049
vertex -0.050000 -0.007818 0.000640
endloop
endfacet
facet normal -1.000000 0.000000 0.000000
outer loop
vertex -0.050000 -0.007818 0.000640
vertex -0.050000 -0.013943 0.002009
vertex -0.050000 -0.019848 0.004135
endloop
endfacet
facet normal -1.000000 0.000000 0.000000
outer loop
vertex -0.050000 -0.019848 0.004135
vertex -0.050000 -0.025440 0.006984
vertex -0.050000 -0.030630 0.010512
endloop
endfacet
facet normal -1.000000 0.000000 0.000000
outer loop
vertex -0.050000 -0.030630 0.010512
vertex -0.050000 -0.035338 0.014662
vertex -0.050000 -0.039488 0.019370
endloop
endfacet
facet normal -1.000000 0.000000 0.000000
outer loop
vertex -0.050000 -0.039488 0.019370
vertex -0.050000 -0.043016 0.024561
vertex -0.050000 -0.045865 0.030152
endloop
endfacet
facet normal -1.000000 0.000000 0.000000
outer loop
vertex -0.050000 -0.045865 0.030152
vertex -0.050000 -0.047991 0.036057
vertex -0.050000 -0.049360 0.042182
endloop
endfacet
facet normal -1.000000 0.000000 0.000000
outer loop
vertex -0.050000 -0.049360 0.042182
vertex -0.050000 -0.049951 0.048430
vertex -0.050000 -0.049754 0.054703
endloop
endfacet
facet normal -1.000000 -0.000012 0.000000
outer loop
vertex -0.050000 -0.049754 0.054703
vertex -0.050000 -0.048772 0.060902
vertex -0.050000 -0.047021 0.066929
endloop
endfacet
facet normal -1.000000 -0.000012 0.000000
outer loop
vertex -0.050000 -0.047021 0.066929
vertex -0.050000 -0.044528 0.072688
vertex -0.050000 -0.041334 0.078090
endloop
endfacet
facet normal -1.000000 0.000012 0.000000
outer loop
vertex -0.050000 -0.041334 0.078090
vertex -0.050000 -0.037487 0.083049
vertex -0.050000 -0.033049 0.087487
endloop
endfacet
facet normal -1.000000 0.000000 0.000000
outer loop
vertex -0.050000 -0.033049 0.087487
vertex -0.050000 -0.028090 0.091334
vertex -0.050000 -0.022688 0.094528
endloop
endfacet
facet normal -1.000000 0.000003 0.000000
outer loop
vertex -0.050000 -0.022688 0.094528
vertex -0.050000 -0.016928 0.097021
vertex -0.050000 -0.010902 0.098772
endloop
endfacet
facet normal -1.000000 0.000000 0.000000
outer loop
vertex -0.050000 -0.010902 0.098772
vertex -0.050000 -0.004703 0.099754
vertex -0.050000 0.001570 0.099951
endloop
endfacet
facet normal -1.000000 -0.000003 0.000000
outer loop
vertex -0.050000 0.001570 0.099951
vertex -0.050000 0.007818 0.099360
vertex -0.050000 0.013943 0.097991
endloop
endfacet
facet normal -1.000000 0.000006 0.000000
outer loop
vertex -0.050000 0.013943 0.097991
vertex -0.050000 0.019848 0.095865
vertex -0.050000 0.025440 0.093016
endloop
endfacet
facet normal -1.000000 0.000000 0.000000
outer loop
vertex -0.050000 0.025440 0.093016
vertex -0.050000 0.030630 0.089488
vertex -0.050000 0.035338 0.085338
endloop
endfacet
facet normal -1.000000 -0.000012 0.000000
outer loop
vertex -0.050000 0.035338 0.085338
vertex -0.050000 0.039488 0.080630
vertex -0.050000 0.043016 0.075439
endloop
endfacet
facet normal -1.000000 0.000000 0.000000
outer loop
vertex -0.050000 0.043016 0.075439
vertex -0.050000 0.045865 0.069848
vertex -0.050000 0.047991 0.063943
endloop
endfacet
facet normal -1.000000 -0.000012 0.000000
outer loop
vertex -0.050000 0.047991 0.063943
vertex -0.050000 0.049360 0.057818
vertex -0.050000 0.049951 0.051570
endloop
endfacet
facet normal -1.000000 -0.000003 0.000000
outer loop
vertex -0.050000 0.049951 0.051570
vertex -0.050000 0.048772 0.039098
vertex -0.050000 0.044528 0.027312
endloop
endfacet
facet normal -1.000000 -0.000001 0.000000
outer loop
vertex -0.050000 0.044528 0.027312
vertex -0.050000 0.037487 0.016951
vertex -0.050000 0.028090 0.008666
endloop
endfacet
facet normal -1.000000 -0.000001 0.000000
outer loop
vertex -0.050000 0.028090 0.008666
vertex -0.050000 0.016929 0.002979
vertex -0.050000 0.004703 0.000246
endloop
endfacet
facet normal -1.000000 0.000000 0.000000
outer loop
vertex -0.050000 0.004703 0.000246
vertex -0.050000 -0.007818 0.000640
vertex -0.050000 -0.019848 0.004135
endloop
endfacet
facet normal -1.000000 -0.000001 0.000000
outer loop
vertex -0.050000 -0.019848 0.004135
vertex -0.050000 -0.030630 0.010512
vertex -0.050000 -0.039488 0.019370
endloop
endfacet
facet normal -1.000000 0.000000 0.000000
outer loop
vertex -0.050000 -0.039488 0.019370
vertex -0.050000 -0.045865 0.030152
vertex -0.050000 -0.049360 0.042182
endloop
endfacet
facet normal -1.000000 0.000000 0.000000
outer loop
vertex -0.050000 -0.049360 0.042182
vertex -0.050000 -0.049754 0.054703
vertex -0.050000 -0.047021 0.066929
endloop
endfacet
facet normal -1.000000 0.000001 0.000000
outer loop
vertex -0.050000 -0.047021 0.066929
vertex -0.050000 -0.041334 0.078090
vertex -0.050000 -0.033049 0.087487
endloop
endfacet
facet normal -1.000000 0.000000 0.000000
outer loop
vertex -0.050000 -0.033049 0.087487
vertex -0.050000 -0.022688 0.094528
vertex -0.050000 -0.010902 0.098772
endloop
endfacet
facet normal -1.000000 0.000000 0.000000
outer loop
vertex -0.050000 -0.010902 0.098772
vertex -0.050000 0.001570 0.099951
vertex -0.050000 0.013943 0.097991
endloop
endfacet
facet normal -1.000000 0.000000 0.000000
outer loop
vertex -0.050000 0.013943 0.097991
vertex -0.050000 0.025440 0.093016
vertex -0.050000 0.035338 0.085338
endloop
endfacet
facet normal -1.000000 0.000003 0.000000
outer loop
vertex -0.050000 0.035338 0.085338
vertex -0.050000 0.043016 0.075439
vertex -0.050000 0.047991 0.063943
endloop
endfacet
facet normal -1.000000 0.000002 0.000000
outer loop
vertex -0.050000 0.047991 0.063943
vertex -0.050000 0.049951 0.051570
vertex -0.050000 0.044528 0.027312
endloop
endfacet
facet normal -1.000000 0.000000 0.000000
outer loop
vertex -0.050000 0.044528 0.027312
vertex -0.050000 0.028090 0.008666
vertex -0.050000 0.004703 0.000246
endloop
endfacet
facet normal -1.000000 0.000000 0.000000
outer loop
vertex -0.050000 0.004703 0.000246
vertex -0.050000 -0.019848 0.004135
vertex -0.050000 -0.039488 0.019370
endloop
endfacet
facet normal -1.000000 0.000000 0.000000
outer loop
vertex -0.050000 -0.039488 0.019370
vertex -0.050000 -0.049360 0.042182
vertex -0.050000 -0.047021 0.066929
endloop
endfacet
facet normal -1.000000 0.000000 0.000000
outer loop
vertex -0.050000 -0.047021 0.066929
vertex -0.050000 -0.033049 0.087487
vertex -0.050000 -0.010902 0.098772
endloop
endfacet
facet normal -1.000000 0.000000 0.000000
outer loop
vertex -0.050000 -0.010902 0.098772
vertex -0.050000 0.013943 0.097991
vertex -0.050000 0.035338 0.085338
endloop
endfacet
facet normal -1.000000 0.000000 0.000000
outer loop
vertex -0.050000 0.035338 0.085338
vertex -0.050000 0.047991 0.063943
vertex -0.050000 0.044528 0.027312
endloop
endfacet
facet normal -1.000000 0.000000 0.000000
outer loop
vertex -0.050000 0.044528 0.027312
vertex -0.050000 0.004703 0.000246
vertex -0.050000 -0.039488 0.019370
endloop
endfacet
facet normal -1.000000 -0.000000 0.000000
outer loop
vertex -0.050000 -0.039488 0.019370
vertex -0.050000 -0.047021 0.066929
vertex -0.050000 -0.010902 0.098772
endloop
endfacet
facet normal -1.000000 -0.000000 0.000000
outer loop
vertex -0.050000 -0.010902 0.098772
vertex -0.050000 0.035338 0.085338
vertex -0.050000 0.044528 0.027312
endloop
endfacet
facet normal -1.000000 0.000000 0.000000
outer loop
vertex -0.050000 0.044528 0.027312
vertex -0.050000 -0.039488 0.019370
vertex -0.050000 -0.010902 0.098772
endloop
endfacet
endsolid Inlet
