solid Outlet
facet normal 1.000000 0.000000 0.000000
outer loop
vertex 0.150000 0.049606 0.043733
vertex 0.150000 0.049901 0.046860
vertex 0.150000 0.050000 0.050000
endloop
endfacet
facet normal 1.000000 0.000000 0.000000
outer loop
vertex 0.150000 0.050000 0.050000
vertex 0.150000 0.049901 0.053139
vertex 0.150000 0.049606 0.056267
endloop
endfacet
facet normal 1.000000 -0.000094 0.000000
outer loop
vertex 0.150000 0.049606 0.056267
vertex 0.150000 0.049114 0.059369
vertex 0.150000 0.048429 0.062434
endloop
endfacet
facet normal 1.000000 0.000000 0.000000
outer loop
vertex 0.150000 0.048429 0.062434
vertex 0.150000 0.047553 0.065451
vertex 0.150000 0.046489 0.068406
endloop
endfacet
facet normal 1.000000 -0.000094 0.000000
outer loop
vertex 0.150000 0.046489 0.068406
vertex 0.150000 0.045241 0.071289
vertex 0.150000 0.043815 0.074088
endloop
endfacet
facet normal 1.000000 0.000000 0.000000
outer loop
vertex 0.150000 0.043815 0.074088
vertex 0.150000 0.042216 0.076791
vertex 0.150000 0.040451 0.079389
endloop
endfacet
facet normal 1.000000 -0.000094 0.000000
outer loop
vertex 0.150000 0.040451 0.079389
vertex 0.150000 0.038526 0.081871
vertex 0.150000 0.036448 0.084227
endloop
endfacet
facet normal 1.000000 -0.000094 0.000000
outer loop
vertex 0.150000 0.036448 0.084227
vertex 0.150000 0.034227 0.086448
vertex 0.150000 0.031871 0.088526
endloop
endfacet
facet normal 1.000000 0.000000 0.000000
outer loop
vertex 0.150000 0.031871 0.088526
vertex 0.150000 0.029389 0.090451
vertex 0.150000 0.026791 0.092216
endloop
endfacet
facet normal 1.000000 0.000000 0.000000
outer loop
vertex 0.150000 0.026791 0.092216
vertex 0.150000 0.024088 0.093815
vertex 0.150000 0.021289 0.095241
endloop
endfacet
facet normal 1.000000 -0.000047 0.000000
outer loop
vertex 0.150000 0.021289 0.095241
vertex 0.150000 0.018406 0.096489
vertex 0.150000 0.015451 0.097553
endloop
endfacet
facet normal 1.000000 0.000000 0.000000
outer loop
vertex 0.150000 0.015451 0.097553
vertex 0.150000 0.012435 0.098429
vertex 0.150000 0.009369 0.099114
endloop
endfacet
facet normal 1.000000 -0.000023 0.000000
outer loop
vertex 0.150000 0.009369 0.099114
vertex 0.150000 0.006267 0.099606
vertex 0.150000 0.003140 0.099901
endloop
endfacet
facet normal 1.000000 0.000000 0.000000
outer loop
vertex 0.150000 0.003140 0.099901
vertex 0.150000 0.000000 0.100000
vertex 0.150000 -0.003139 0.099901
endloop
endfacet
facet normal 1.000000 0.000000 0.000000
outer loop
vertex 0.150000 -0.003139 0.099901
vertex 0.150000 -0.006267 0.099606
vertex 0.150000 -0.009369 0.099114
endloop
endfacet
facet normal 1.000000 0.000000 0.000000
outer loop
vertex 0.150000 -0.009369 0.099114
vertex 0.150000 -0.012434 0.098429
vertex 0.150000 -0.015451 0.097553
endloop
endfacet
facet normal 1.000000 0.000000 0.000000
outer loop
vertex 0.150000 -0.015451 0.097553
vertex 0.150000 -0.018406 0.096489
vertex 0.150000 -0.021289 0.095241
endloop
endfacet
facet normal 1.000000 0.000047 0.000000
outer loop
vertex 0.150000 -0.021289 0.095241
vertex 0.150000 -0.024088 0.093815
vertex 0.150000 -0.026791 0.092216
endloop
endfacet
facet normal 1.000000 0.000000 0.000000
outer loop
vertex 0.150000 -0.026791 0.092216
vertex 0.150000 -0.029389 0.090451
vertex 0.150000 -0.031871 0.088526
endloop
endfacet
facet normal 1.000000 0.000000 0.000000
outer loop
vertex 0.150000 -0.031871 0.088526
vertex 0.150000 -0.034227 0.086448
vertex 0.150000 -0.036448 0.084227
endloop
endfacet
facet normal 1.000000 0.000000 0.000000
outer loop
vertex 0.150000 -0.036448 0.084227
vertex 0.150000 -0.038526 0.081871
vertex 0.150000 -0.040451 0.079389
endloop
endfacet
facet normal 1.000000 -0.000094 0.000000
outer loop
vertex 0.150000 -0.040451 0.079389
vertex 0.150000 -0.042216 0.076791
vertex 0.150000 -0.043815 0.074088
endloop
endfacet
facet normal 1.000000 0.000000 0.000000
outer loop
vertex 0.150000 -0.043815 0.074088
vertex 0.150000 -0.045241 0.071289
vertex 0.150000 -0.046489 0.068406
endloop
endfacet
facet normal 1.000000 0.000094 0.000000
outer loop
vertex 0.150000 -0.046489 0.068406
vertex 0.150000 -0.047553 0.065451
vertex 0.150000 -0.048429 0.062435
endloop
endfacet
facet normal 1.000000 0.000000 0.000000
outer loop
vertex 0.150000 -0.048429 0.062435
vertex 0.150000 -0.049114 0.059369
vertex 0.150000 -0.049606 0.056267
endloop
endfacet
facet normal 1.000000 0.000000 0.000000
outer loop
vertex 0.150000 -0.049606 0.056267
vertex 0.150000 -0.049901 0.053140
vertex 0.150000 -0.050000 0.050000
endloop
endfacet
facet normal 1.000000 -0.000094 0.000000
outer loop
vertex 0.150000 -0.050000 0.050000
vertex 0.150000 -0.049901 0.046861
vertex 0.150000 -0.049606 0.043733
endloop
endfacet
facet normal 1.000000 0.000094 0.000000
outer loop
vertex 0.150000 -0.049606 0.043733
vertex 0.150000 -0.049114 0.040631
vertex 0.150000 -0.048429 0.037566
endloop
endfacet
facet normal 1.000000 -0.000094 0.000000
outer loop
vertex 0.150000 -0.048429 0.037566
vertex 0.150000 -0.047553 0.034549
vertex 0.150000 -0.046489 0.031594
endloop
endfacet
facet normal 1.000000 0.000000 0.000000
outer loop
vertex 0.150000 -0.046489 0.031594
vertex 0.150000 -0.045241 0.028711
vertex 0.150000 -0.043815 0.025912
endloop
endfacet
facet normal 1.000000 0.000094 0.000000
outer loop
vertex 0.150000 -0.043815 0.025912
vertex 0.150000 -0.042216 0.023209
vertex 0.150000 -0.040451 0.020611
endloop
endfacet
facet normal 1.000000 0.000094 0.000000
outer loop
vertex 0.150000 -0.040451 0.020611
vertex 0.150000 -0.038526 0.018129
vertex 0.150000 -0.036448 0.015773
endloop
endfacet
facet normal 1.000000 0.000000 0.000000
outer loop
vertex 0.150000 -0.036448 0.015773
vertex 0.150000 -0.034227 0.013552
vertex 0.150000 -0.031871 0.011474
endloop
endfacet
facet normal 1.000000 0.000094 0.000000
outer loop
vertex 0.150000 -0.031871 0.011474
vertex 0.150000 -0.029389 0.009549
vertex 0.150000 -0.026791 0.007784
endloop
endfacet
facet normal 1.000000 0.000000 0.000000
outer loop
vertex 0.150000 -0.026791 0.007784
vertex 0.150000 -0.024088 0.006185
vertex 0.150000 -0.021289 0.004759
endloop
endfacet
facet normal 1.000000 0.000000 0.000000
outer loop
vertex 0.150000 -0.021289 0.004759
vertex 0.150000 -0.018406 0.003511
vertex 0.150000 -0.015451 0.002447
endloop
endfacet
facet normal 1.000000 0.000023 0.000000
outer loop
vertex 0.150000 -0.015451 0.002447
vertex 0.150000 -0.012435 0.001571
vertex 0.150000 -0.009369 0.000886
endloop
endfacet
facet normal 1.000000 0.000000 0.000000
outer loop
vertex 0.150000 -0.009369 0.000886
vertex 0.150000 -0.006267 0.000394
vertex 0.150000 -0.003140 0.000099
endloop
endfacet
facet normal 1.000000 0.000000 0.000000
outer loop
vertex 0.150000 -0.003140 0.000099
vertex 0.150000 -0.000000 -0.000000
vertex 0.150000 0.003140 0.000099
endloop
endfacet
facet normal 1.000000 0.000000 0.000000
outer loop
vertex 0.150000 0.003140 0.000099
vertex 0.150000 0.006267 0.000394
vertex 0.150000 0.009369 0.000886
endloop
endfacet
facet normal 1.000000 0.000000 0.000000
outer loop
vertex 0.150000 0.009369 0.000886
vertex 0.150000 0.012434 0.001571
vertex 0.150000 0.015451 0.002447
endloop
endfacet
facet normal 1.000000 0.000000 0.000000
outer loop
vertex 0.150000 0.015451 0.002447
vertex 0.150000 0.018406 0.003511
vertex 0.150000 0.021289 0.004759
endloop
endfacet
facet normal 1.000000 0.000047 0.000000
outer loop
vertex 0.150000 0.021289 0.004759
vertex 0.150000 0.024088 0.006185
vertex 0.150000 0.026791 0.007784
endloop
endfacet
facet normal 1.000000 0.000094 0.000000
outer loop
vertex 0.150000 0.026791 0.007784
vertex 0.150000 0.029389 0.009549
vertex 0.150000 0.031871 0.011474
endloop
endfacet
facet normal 1.000000 -0.000094 0.000000
outer loop
vertex 0.150000 0.031871 0.011474
vertex 0.150000 0.034227 0.013552
vertex 0.150000 0.036448 0.015773
endloop
endfacet
facet normal 1.000000 -0.000094 0.000000
outer loop
vertex 0.150000 0.036448 0.015773
vertex 0.150000 0.038526 0.018129
vertex 0.150000 0.040451 0.020611
endloop
endfacet
facet normal 1.000000 0.000000 0.000000
outer loop
vertex 0.150000 0.040451 0.020611
vertex 0.150000 0.042216 0.023209
vertex 0.150000 0.043815 0.025912
endloop
endfacet
facet normal 1.000000 0.000094 0.000000
outer loop
vertex 0.150000 0.043815 0.025912
vertex 0.150000 0.045241 0.028711
vertex 0.150000 0.046489 0.031594
endloop
endfacet
facet normal 1.000000 0.000000 0.000000
outer loop
vertex 0.150000 0.046489 0.031594
vertex 0.150000 0.047553 0.034549
vertex 0.150000 0.048429 0.037565
endloop
endfacet
facet normal 1.000000 -0.000094 0.000000
outer loop
vertex 0.150000 0.048429 0.037565
vertex 0.150000 0.049114 0.040631
vertex 0.150000 0.049606 0.043733
endloop
endfacet
facet normal 1.000000 -0.000024 0.000000
outer loop
vertex 0.150000 0.049606 0.043733
vertex 0.150000 0.050000 0.050000
vertex 0.150000 0.049606 0.056267
endloop
endfacet
facet normal 1.000000 0.000000 0.000000
outer loop
vertex 0.150000 0.049606 0.056267
vertex 0.150000 0.048429 0.062434
vertex 0.150000 0.046489 0.068406
endloop
endfacet
facet normal 1.000000 0.000024 0.000000
outer loop
vertex 0.150000 0.046489 0.068406
vertex 0.150000 0.043815 0.074088
vertex 0.150000 0.040451 0.079389
endloop
endfacet
facet normal 1.000000 0.000000 0.000000
outer loop
vertex 0.150000 0.040451 0.079389
vertex 0.150000 0.036448 0.084227
vertex 0.150000 0.031871 0.088526
endloop
endfacet
facet normal 1.000000 0.000024 0.000000
outer loop
vertex 0.150000 0.031871 0.088526
vertex 0.150000 0.026791 0.092216
vertex 0.150000 0.021289 0.095241
endloop
endfacet
facet normal 1.000000 0.000000 0.000000
outer loop
vertex 0.150000 0.021289 0.095241
vertex 0.150000 0.015451 0.097553
vertex 0.150000 0.009369 0.099114
endloop
endfacet
facet normal 1.000000 0.000000 0.000000
outer loop
vertex 0.150000 0.009369 0.099114
vertex 0.150000 0.003140 0.099901
vertex 0.150000 -0.003139 0.099901
endloop
endfacet
facet normal 1.000000 0.000006 0.000000
outer loop
vertex 0.150000 -0.003139 0.099901
vertex 0.150000 -0.009369 0.099114
vertex 0.150000 -0.015451 0.097553
endloop
endfacet
facet normal 1.000000 -0.000012 0.000000
outer loop
vertex 0.150000 -0.015451 0.097553
vertex 0.150000 -0.021289 0.095241
vertex 0.150000 -0.026791 0.092216
endloop
endfacet
facet normal 1.000000 0.000024 0.000000
outer loop
vertex 0.150000 -0.026791 0.092216
vertex 0.150000 -0.031871 0.088526
vertex 0.150000 -0.036448 0.084227
endloop
endfacet
facet normal 1.000000 0.000000 0.000000
outer loop
vertex 0.150000 -0.036448 0.084227
vertex 0.150000 -0.040451 0.079389
vertex 0.150000 -0.043815 0.074088
endloop
endfacet
facet normal 1.000000 -0.000024 0.000000
outer loop
vertex 0.150000 -0.043815 0.074088
vertex 0.150000 -0.046489 0.068406
vertex 0.150000 -0.048429 0.062435
endloop
endfacet
facet normal 1.000000 0.000000 0.000000
outer loop
vertex 0.150000 -0.048429 0.062435
vertex 0.150000 -0.049606 0.056267
vertex 0.150000 -0.050000 0.050000
endloop
endfacet
facet normal 1.000000 0.000024 0.000000
outer loop
vertex 0.150000 -0.050000 0.050000
vertex 0.150000 -0.049606 0.043733
vertex 0.150000 -0.048429 0.037566
endloop
endfacet
facet normal 1.000000 0.000000 0.000000
outer loop
vertex 0.150000 -0.048429 0.037566
vertex 0.150000 -0.046489 0.031594
vertex 0.150000 -0.043815 0.025912
endloop
endfacet
facet normal 1.000000 -0.000024 0.000000
outer loop
vertex 0.150000 -0.043815 0.025912
vertex 0.150000 -0.040451 0.020611
vertex 0.150000 -0.036448 0.015773
endloop
endfacet
facet normal 1.000000 -0.000024 0.000000
outer loop
vertex 0.150000 -0.036448 0.015773
vertex 0.150000 -0.031871 0.011474
vertex 0.150000 -0.026791 0.007784
endloop
endfacet
facet normal 1.000000 -0.000012 0.000000
outer loop
vertex 0.150000 -0.026791 0.007784
vertex 0.150000 -0.021289 0.004759
vertex 0.150000 -0.015451 0.002447
endloop
endfacet
facet normal 1.000000 0.000003 0.000000
outer loop
vertex 0.150000 -0.015451 0.002447
vertex 0.150000 -0.009369 0.000886
vertex 0.150000 -0.003140 0.000099
endloop
endfacet
facet normal 1.000000 0.000000 0.000000
outer loop
vertex 0.150000 -0.003140 0.000099
vertex 0.150000 0.003140 0.000099
vertex 0.150000 0.009369 0.000886
endloop
endfacet
facet normal 1.000000 -0.000012 0.000000
outer loop
vertex 0.150000 0.009369 0.000886
vertex 0.150000 0.015451 0.002447
vertex 0.150000 0.021289 0.004759
endloop
endfacet
facet normal 1.000000 0.000024 0.000000
outer loop
vertex 0.150000 0.021289 0.004759
vertex 0.150000 0.026791 0.007784
vertex 0.150000 0.031871 0.011474
endloop
endfacet
facet normal 1.000000 0.000024 0.000000
outer loop
vertex 0.150000 0.031871 0.011474
vertex 0.150000 0.036448 0.015773
vertex 0.150000 0.040451 0.020611
endloop
endfacet
facet normal 1.000000 -0.000024 0.000000
outer loop
vertex 0.150000 0.040451 0.020611
vertex 0.150000 0.043815 0.025912
vertex 0.150000 0.046489 0.031594
endloop
endfacet
facet normal 1.000000 0.000024 0.000000
outer loop
vertex 0.150000 0.046489 0.031594
vertex 0.150000 0.048429 0.037565
vertex 0.150000 0.049606 0.043733
endloop
endfacet
facet normal 1.000000 0.000000 0.000000
outer loop
vertex 0.150000 0.049606 0.043733
vertex 0.150000 0.049606 0.056267
vertex 0.150000 0.046489 0.068406
endloop
endfacet
facet normal 1.000000 0.000006 0.000000
outer loop
vertex 0.150000 0.046489 0.068406
vertex 0.150000 0.040451 0.079389
vertex 0.150000 0.031871 0.088526
endloop
endfacet
facet normal 1.000000 -0.000003 0.000000
outer loop
vertex 0.150000 0.031871 0.088526
vertex 0.150000 0.021289 0.095241
vertex 0.150000 0.009369 0.099114
endloop
endfacet
facet normal 1.000000 0.000000 0.000000
outer loop
vertex 0.150000 0.009369 0.099114
vertex 0.150000 -0.003139 0.099901
vertex 0.150000 -0.015451 0.097553
endloop
endfacet
facet normal 1.000000 0.000000 0.000000
outer loop
vertex 0.150000 -0.015451 0.097553
vertex 0.150000 -0.026791 0.092216
vertex 0.150000 -0.036448 0.084227
endloop
endfacet
facet normal 1.000000 0.000006 0.000000
outer loop
vertex 0.150000 -0.036448 0.084227
vertex 0.150000 -0.043815 0.074088
vertex 0.150000 -0.048429 0.062435
endloop
endfacet
facet normal 1.000000 0.000000 0.000000
outer loop
vertex 0.150000 -0.048429 0.062435
vertex 0.150000 -0.050000 0.050000
vertex 0.150000 -0.048429 0.037566
endloop
endfacet
facet normal 1.000000 0.000006 0.000000
outer loop
vertex 0.150000 -0.048429 0.037566
vertex 0.150000 -0.043815 0.025912
vertex 0.150000 -0.036448 0.015773
endloop
endfacet
facet normal 1.000000 0.000003 0.000000
outer loop
vertex 0.150000 -0.036448 0.015773
vertex 0.150000 -0.026791 0.007784
vertex 0.150000 -0.015451 0.002447
endloop
endfacet
facet normal 1.000000 -0.000000 0.000000
outer loop
vertex 0.150000 -0.015451 0.002447
vertex 0.150000 -0.003140 0.000099
vertex 0.150000 0.009369 0.000886
endloop
endfacet
facet normal 1.000000 0.000000 0.000000
outer loop
vertex 0.150000 0.009369 0.000886
vertex 0.150000 0.021289 0.004759
vertex 0.150000 0.031871 0.011474
endloop
endfacet
facet normal 1.000000 0.000000 0.000000
outer loop
vertex 0.150000 0.031871 0.011474
vertex 0.150000 0.040451 0.020611
vertex 0.150000 0.046489 0.031594
endloop
endfacet
facet normal 1.000000 0.000000 0.000000
outer loop
vertex 0.150000 0.046489 0.031594
vertex 0.150000 0.049606 0.043733
vertex 0.150000 0.046489 0.068406
endloop
endfacet
facet normal 1.000000 0.000000 0.000000
outer loop
vertex 0.150000 0.046489 0.068406
vertex 0.150000 0.031871 0.088526
vertex 0.150000 0.009369 0.099114
endloop
endfacet
facet normal 1.000000 0.000000 0.000000
outer loop
vertex 0.150000 0.009369 0.099114
vertex 0.150000 -0.015451 0.097553
vertex 0.150000 -0.036448 0.084227
endloop
endfacet
facet normal 1.000000 -0.000002 0.000000
outer loop
vertex 0.150000 -0.036448 0.084227
vertex 0.150000 -0.048429 0.062435
vertex 0.150000 -0.048429 0.037566
endloop
endfacet
facet normal 1.000000 -0.000002 0.000000
outer loop
vertex 0.150000 -0.048429 0.037566
vertex 0.150000 -0.036448 0.015773
vertex 0.150000 -0.015451 0.002447
endloop
endfacet
facet normal 1.000000 0.000000 0.000000
outer loop
vertex 0.150000 -0.015451 0.002447
vertex 0.150000 0.009369 0.000886
vertex 0.150000 0.031871 0.011474
endloop
endfacet
facet normal 1.000000 -0.000002 0.000000
outer loop
vertex 0.150000 0.031871 0.011474
vertex 0.150000 0.046489 0.031594
vertex 0.150000 0.046489 0.068406
endloop
endfacet
facet normal 1.000000 0.000000 0.000000
outer loop
vertex 0.150000 0.046489 0.068406
vertex 0.150000 0.009369 0.099114
vertex 0.150000 -0.036448 0.084227
endloop
endfacet
facet normal 1.000000 -0.000000 0.000000
outer loop
vertex 0.150000 -0.036448 0.084227
vertex 0.150000 -0.048429 0.037566
vertex 0.150000 -0.015451 0.002447
endloop
endfacet
facet normal 1.000000 0.000001 0.000000
outer loop
vertex 0.150000 -0.015451 0.002447
vertex 0.150000 0.031871 0.011474
vertex 0.150000 0.046489 0.068406
endloop
endfacet
facet normal 1.000000 0.000000 0.000000
outer loop
vertex 0.150000 0.046489 0.068406
vertex 0.150000 -0.036448 0.084227
vertex 0.150000 -0.015451 0.002447
endloop
endfacet
endsolid Outlet
